<svg width="354" height="58" viewBox="0 0 354 58" fill="none" xmlns="http://www.w3.org/2000/svg">
<path d="M92.0967 15.582V17.5332C92.0967 18.582 92.0029 19.4668 91.8154 20.1875C91.6279 20.9082 91.3584 21.4883 91.0068 21.9277C90.6553 22.3672 90.2305 22.6865 89.7324 22.8857C89.2402 23.0791 88.6836 23.1758 88.0625 23.1758C87.5703 23.1758 87.1162 23.1143 86.7002 22.9912C86.2842 22.8682 85.9092 22.6719 85.5752 22.4023C85.2471 22.127 84.9658 21.7695 84.7314 21.3301C84.4971 20.8906 84.3184 20.3574 84.1953 19.7305C84.0723 19.1035 84.0107 18.3711 84.0107 17.5332V15.582C84.0107 14.5332 84.1045 13.6543 84.292 12.9453C84.4854 12.2363 84.7578 11.668 85.1094 11.2402C85.4609 10.8066 85.8828 10.4961 86.375 10.3086C86.873 10.1211 87.4297 10.0273 88.0449 10.0273C88.543 10.0273 89 10.0889 89.416 10.2119C89.8379 10.3291 90.2129 10.5195 90.541 10.7832C90.8691 11.041 91.1475 11.3867 91.376 11.8203C91.6104 12.248 91.7891 12.7725 91.9121 13.3936C92.0352 14.0146 92.0967 14.7441 92.0967 15.582ZM90.4619 17.7969V15.3096C90.4619 14.7354 90.4268 14.2314 90.3564 13.7979C90.292 13.3584 90.1953 12.9834 90.0664 12.6729C89.9375 12.3623 89.7734 12.1104 89.5742 11.917C89.3809 11.7236 89.1553 11.583 88.8975 11.4951C88.6455 11.4014 88.3613 11.3545 88.0449 11.3545C87.6582 11.3545 87.3154 11.4277 87.0166 11.5742C86.7178 11.7148 86.4658 11.9404 86.2607 12.251C86.0615 12.5615 85.9092 12.9688 85.8037 13.4727C85.6982 13.9766 85.6455 14.5889 85.6455 15.3096V17.7969C85.6455 18.3711 85.6777 18.8779 85.7422 19.3174C85.8125 19.7568 85.915 20.1377 86.0498 20.46C86.1846 20.7764 86.3486 21.0371 86.542 21.2422C86.7354 21.4473 86.958 21.5996 87.21 21.6992C87.4678 21.793 87.752 21.8398 88.0625 21.8398C88.4609 21.8398 88.8096 21.7637 89.1084 21.6113C89.4072 21.459 89.6562 21.2217 89.8555 20.8994C90.0605 20.5713 90.2129 20.1523 90.3125 19.6426C90.4121 19.127 90.4619 18.5117 90.4619 17.7969ZM95.8057 21.6377H95.9727C96.9102 21.6377 97.6719 21.5059 98.2578 21.2422C98.8438 20.9785 99.2949 20.624 99.6113 20.1787C99.9277 19.7334 100.145 19.2324 100.262 18.6758C100.379 18.1133 100.438 17.5361 100.438 16.9443V14.9844C100.438 14.4043 100.37 13.8887 100.235 13.4375C100.106 12.9863 99.9248 12.6084 99.6904 12.3037C99.4619 11.999 99.2012 11.7676 98.9082 11.6094C98.6152 11.4512 98.3047 11.3721 97.9766 11.3721C97.6016 11.3721 97.2646 11.4482 96.9658 11.6006C96.6729 11.7471 96.4238 11.9551 96.2188 12.2246C96.0195 12.4941 95.8672 12.8105 95.7617 13.1738C95.6562 13.5371 95.6035 13.9326 95.6035 14.3604C95.6035 14.7412 95.6504 15.1104 95.7441 15.4678C95.8379 15.8252 95.9814 16.1475 96.1748 16.4346C96.3682 16.7217 96.6084 16.9502 96.8955 17.1201C97.1885 17.2842 97.5312 17.3662 97.9238 17.3662C98.2871 17.3662 98.627 17.2959 98.9434 17.1553C99.2656 17.0088 99.5498 16.8125 99.7959 16.5664C100.048 16.3145 100.247 16.0303 100.394 15.7139C100.546 15.3975 100.634 15.0664 100.657 14.7207H101.431C101.431 15.207 101.334 15.6875 101.141 16.1621C100.953 16.6309 100.689 17.0586 100.35 17.4453C100.01 17.832 99.6113 18.1426 99.1543 18.377C98.6973 18.6055 98.1992 18.7197 97.6602 18.7197C97.0273 18.7197 96.4795 18.5967 96.0166 18.3506C95.5537 18.1045 95.1729 17.7764 94.874 17.3662C94.5811 16.9561 94.3613 16.499 94.2148 15.9951C94.0742 15.4854 94.0039 14.9697 94.0039 14.4482C94.0039 13.8389 94.0889 13.2676 94.2588 12.7344C94.4287 12.2012 94.6807 11.7324 95.0146 11.3281C95.3486 10.918 95.7617 10.5986 96.2539 10.3701C96.752 10.1416 97.3262 10.0273 97.9766 10.0273C98.709 10.0273 99.333 10.1738 99.8486 10.4668C100.364 10.7598 100.783 11.1523 101.105 11.6445C101.434 12.1367 101.674 12.6904 101.826 13.3057C101.979 13.9209 102.055 14.5537 102.055 15.2041V15.793C102.055 16.4551 102.011 17.1289 101.923 17.8145C101.841 18.4941 101.68 19.1445 101.439 19.7656C101.205 20.3867 100.862 20.9434 100.411 21.4355C99.96 21.9219 99.3711 22.3086 98.6445 22.5957C97.9238 22.877 97.0332 23.0176 95.9727 23.0176H95.8057V21.6377ZM104.419 22.1387C104.419 21.8633 104.504 21.6318 104.674 21.4443C104.85 21.251 105.102 21.1543 105.43 21.1543C105.758 21.1543 106.007 21.251 106.177 21.4443C106.353 21.6318 106.44 21.8633 106.44 22.1387C106.44 22.4082 106.353 22.6367 106.177 22.8242C106.007 23.0117 105.758 23.1055 105.43 23.1055C105.102 23.1055 104.85 23.0117 104.674 22.8242C104.504 22.6367 104.419 22.4082 104.419 22.1387ZM104.428 14.3779C104.428 14.1025 104.513 13.8711 104.683 13.6836C104.858 13.4902 105.11 13.3936 105.438 13.3936C105.767 13.3936 106.016 13.4902 106.186 13.6836C106.361 13.8711 106.449 14.1025 106.449 14.3779C106.449 14.6475 106.361 14.876 106.186 15.0635C106.016 15.251 105.767 15.3447 105.438 15.3447C105.11 15.3447 104.858 15.251 104.683 15.0635C104.513 14.876 104.428 14.6475 104.428 14.3779ZM116.706 15.582V17.5332C116.706 18.582 116.612 19.4668 116.425 20.1875C116.237 20.9082 115.968 21.4883 115.616 21.9277C115.265 22.3672 114.84 22.6865 114.342 22.8857C113.85 23.0791 113.293 23.1758 112.672 23.1758C112.18 23.1758 111.726 23.1143 111.31 22.9912C110.894 22.8682 110.519 22.6719 110.185 22.4023C109.856 22.127 109.575 21.7695 109.341 21.3301C109.106 20.8906 108.928 20.3574 108.805 19.7305C108.682 19.1035 108.62 18.3711 108.62 17.5332V15.582C108.62 14.5332 108.714 13.6543 108.901 12.9453C109.095 12.2363 109.367 11.668 109.719 11.2402C110.07 10.8066 110.492 10.4961 110.984 10.3086C111.482 10.1211 112.039 10.0273 112.654 10.0273C113.152 10.0273 113.609 10.0889 114.025 10.2119C114.447 10.3291 114.822 10.5195 115.15 10.7832C115.479 11.041 115.757 11.3867 115.985 11.8203C116.22 12.248 116.398 12.7725 116.521 13.3936C116.645 14.0146 116.706 14.7441 116.706 15.582ZM115.071 17.7969V15.3096C115.071 14.7354 115.036 14.2314 114.966 13.7979C114.901 13.3584 114.805 12.9834 114.676 12.6729C114.547 12.3623 114.383 12.1104 114.184 11.917C113.99 11.7236 113.765 11.583 113.507 11.4951C113.255 11.4014 112.971 11.3545 112.654 11.3545C112.268 11.3545 111.925 11.4277 111.626 11.5742C111.327 11.7148 111.075 11.9404 110.87 12.251C110.671 12.5615 110.519 12.9688 110.413 13.4727C110.308 13.9766 110.255 14.5889 110.255 15.3096V17.7969C110.255 18.3711 110.287 18.8779 110.352 19.3174C110.422 19.7568 110.524 20.1377 110.659 20.46C110.794 20.7764 110.958 21.0371 111.151 21.2422C111.345 21.4473 111.567 21.5996 111.819 21.6992C112.077 21.793 112.361 21.8398 112.672 21.8398C113.07 21.8398 113.419 21.7637 113.718 21.6113C114.017 21.459 114.266 21.2217 114.465 20.8994C114.67 20.5713 114.822 20.1523 114.922 19.6426C115.021 19.127 115.071 18.5117 115.071 17.7969ZM126.831 15.582V17.5332C126.831 18.582 126.737 19.4668 126.55 20.1875C126.362 20.9082 126.093 21.4883 125.741 21.9277C125.39 22.3672 124.965 22.6865 124.467 22.8857C123.975 23.0791 123.418 23.1758 122.797 23.1758C122.305 23.1758 121.851 23.1143 121.435 22.9912C121.019 22.8682 120.644 22.6719 120.31 22.4023C119.981 22.127 119.7 21.7695 119.466 21.3301C119.231 20.8906 119.053 20.3574 118.93 19.7305C118.807 19.1035 118.745 18.3711 118.745 17.5332V15.582C118.745 14.5332 118.839 13.6543 119.026 12.9453C119.22 12.2363 119.492 11.668 119.844 11.2402C120.195 10.8066 120.617 10.4961 121.109 10.3086C121.607 10.1211 122.164 10.0273 122.779 10.0273C123.277 10.0273 123.734 10.0889 124.15 10.2119C124.572 10.3291 124.947 10.5195 125.275 10.7832C125.604 11.041 125.882 11.3867 126.11 11.8203C126.345 12.248 126.523 12.7725 126.646 13.3936C126.77 14.0146 126.831 14.7441 126.831 15.582ZM125.196 17.7969V15.3096C125.196 14.7354 125.161 14.2314 125.091 13.7979C125.026 13.3584 124.93 12.9834 124.801 12.6729C124.672 12.3623 124.508 12.1104 124.309 11.917C124.115 11.7236 123.89 11.583 123.632 11.4951C123.38 11.4014 123.096 11.3545 122.779 11.3545C122.393 11.3545 122.05 11.4277 121.751 11.5742C121.452 11.7148 121.2 11.9404 120.995 12.251C120.796 12.5615 120.644 12.9688 120.538 13.4727C120.433 13.9766 120.38 14.5889 120.38 15.3096V17.7969C120.38 18.3711 120.412 18.8779 120.477 19.3174C120.547 19.7568 120.649 20.1377 120.784 20.46C120.919 20.7764 121.083 21.0371 121.276 21.2422C121.47 21.4473 121.692 21.5996 121.944 21.6992C122.202 21.793 122.486 21.8398 122.797 21.8398C123.195 21.8398 123.544 21.7637 123.843 21.6113C124.142 21.459 124.391 21.2217 124.59 20.8994C124.795 20.5713 124.947 20.1523 125.047 19.6426C125.146 19.127 125.196 18.5117 125.196 17.7969Z" fill="white"/>
<path d="M91.3057 44.7656C91.3057 44.4668 91.2588 44.2031 91.165 43.9746C91.0771 43.7402 90.9189 43.5293 90.6904 43.3418C90.4678 43.1543 90.1572 42.9756 89.7588 42.8057C89.3662 42.6357 88.8682 42.4629 88.2646 42.2871C87.6318 42.0996 87.0605 41.8916 86.5508 41.6631C86.041 41.4287 85.6045 41.1621 85.2412 40.8633C84.8779 40.5645 84.5996 40.2217 84.4062 39.835C84.2129 39.4482 84.1162 39.0059 84.1162 38.5078C84.1162 38.0098 84.2188 37.5498 84.4238 37.1279C84.6289 36.7061 84.9219 36.3398 85.3027 36.0293C85.6895 35.7129 86.1494 35.4668 86.6826 35.291C87.2158 35.1152 87.8105 35.0273 88.4668 35.0273C89.4277 35.0273 90.2422 35.2119 90.9102 35.5811C91.584 35.9443 92.0967 36.4219 92.4482 37.0137C92.7998 37.5996 92.9756 38.2266 92.9756 38.8945H91.2881C91.2881 38.4141 91.1855 37.9893 90.9805 37.6201C90.7754 37.2451 90.4648 36.9521 90.0488 36.7412C89.6328 36.5244 89.1055 36.416 88.4668 36.416C87.8633 36.416 87.3652 36.5068 86.9727 36.6885C86.5801 36.8701 86.2871 37.1162 86.0938 37.4268C85.9062 37.7373 85.8125 38.0918 85.8125 38.4902C85.8125 38.7598 85.8682 39.0059 85.9795 39.2285C86.0967 39.4453 86.2754 39.6475 86.5156 39.835C86.7617 40.0225 87.0723 40.1953 87.4473 40.3535C87.8281 40.5117 88.2822 40.6641 88.8096 40.8105C89.5361 41.0156 90.1631 41.2441 90.6904 41.4961C91.2178 41.748 91.6514 42.0322 91.9912 42.3486C92.3369 42.6592 92.5918 43.0137 92.7559 43.4121C92.9258 43.8047 93.0107 44.25 93.0107 44.748C93.0107 45.2695 92.9053 45.7412 92.6943 46.1631C92.4834 46.585 92.1816 46.9453 91.7891 47.2441C91.3965 47.543 90.9248 47.7744 90.374 47.9385C89.8291 48.0967 89.2197 48.1758 88.5459 48.1758C87.9541 48.1758 87.3711 48.0938 86.7969 47.9297C86.2285 47.7656 85.71 47.5195 85.2412 47.1914C84.7783 46.8633 84.4062 46.459 84.125 45.9785C83.8496 45.4922 83.7119 44.9297 83.7119 44.291H85.3994C85.3994 44.7305 85.4844 45.1084 85.6543 45.4248C85.8242 45.7354 86.0557 45.9932 86.3486 46.1982C86.6475 46.4033 86.9844 46.5557 87.3594 46.6553C87.7402 46.749 88.1357 46.7959 88.5459 46.7959C89.1377 46.7959 89.6387 46.7139 90.0488 46.5498C90.459 46.3857 90.7695 46.1514 90.9805 45.8467C91.1973 45.542 91.3057 45.1816 91.3057 44.7656ZM96.5527 40.5205V48H94.9268V38.4902H96.4648L96.5527 40.5205ZM96.166 42.8848L95.4893 42.8584C95.4951 42.208 95.5918 41.6074 95.7793 41.0566C95.9668 40.5 96.2305 40.0166 96.5703 39.6064C96.9102 39.1963 97.3145 38.8799 97.7832 38.6572C98.2578 38.4287 98.7822 38.3145 99.3564 38.3145C99.8252 38.3145 100.247 38.3789 100.622 38.5078C100.997 38.6309 101.316 38.8301 101.58 39.1055C101.85 39.3809 102.055 39.7383 102.195 40.1777C102.336 40.6113 102.406 41.1416 102.406 41.7686V48H100.771V41.751C100.771 41.2529 100.698 40.8545 100.552 40.5557C100.405 40.251 100.191 40.0312 99.9102 39.8965C99.6289 39.7559 99.2832 39.6855 98.873 39.6855C98.4688 39.6855 98.0996 39.7705 97.7656 39.9404C97.4375 40.1104 97.1533 40.3447 96.9131 40.6436C96.6787 40.9424 96.4941 41.2852 96.3594 41.6719C96.2305 42.0527 96.166 42.457 96.166 42.8848ZM104.445 43.3506V43.1484C104.445 42.4629 104.545 41.8271 104.744 41.2412C104.943 40.6494 105.23 40.1367 105.605 39.7031C105.98 39.2637 106.435 38.9238 106.968 38.6836C107.501 38.4375 108.099 38.3145 108.761 38.3145C109.429 38.3145 110.029 38.4375 110.562 38.6836C111.102 38.9238 111.559 39.2637 111.934 39.7031C112.314 40.1367 112.604 40.6494 112.804 41.2412C113.003 41.8271 113.103 42.4629 113.103 43.1484V43.3506C113.103 44.0361 113.003 44.6719 112.804 45.2578C112.604 45.8438 112.314 46.3564 111.934 46.7959C111.559 47.2295 111.104 47.5693 110.571 47.8154C110.044 48.0557 109.446 48.1758 108.778 48.1758C108.11 48.1758 107.51 48.0557 106.977 47.8154C106.443 47.5693 105.986 47.2295 105.605 46.7959C105.23 46.3564 104.943 45.8438 104.744 45.2578C104.545 44.6719 104.445 44.0361 104.445 43.3506ZM106.071 43.1484V43.3506C106.071 43.8252 106.127 44.2734 106.238 44.6953C106.35 45.1113 106.517 45.4805 106.739 45.8027C106.968 46.125 107.252 46.3799 107.592 46.5674C107.932 46.749 108.327 46.8398 108.778 46.8398C109.224 46.8398 109.613 46.749 109.947 46.5674C110.287 46.3799 110.568 46.125 110.791 45.8027C111.014 45.4805 111.181 45.1113 111.292 44.6953C111.409 44.2734 111.468 43.8252 111.468 43.3506V43.1484C111.468 42.6797 111.409 42.2373 111.292 41.8213C111.181 41.3994 111.011 41.0273 110.782 40.7051C110.56 40.377 110.278 40.1191 109.938 39.9316C109.604 39.7441 109.212 39.6504 108.761 39.6504C108.315 39.6504 107.923 39.7441 107.583 39.9316C107.249 40.1191 106.968 40.377 106.739 40.7051C106.517 41.0273 106.35 41.3994 106.238 41.8213C106.127 42.2373 106.071 42.6797 106.071 43.1484ZM117.55 46.3125L119.993 38.4902H121.065L120.854 40.0459L118.367 48H117.321L117.55 46.3125ZM115.906 38.4902L117.989 46.4004L118.139 48H117.04L114.28 38.4902H115.906ZM123.403 46.3389L125.39 38.4902H127.007L124.247 48H123.157L123.403 46.3389ZM121.303 38.4902L123.693 46.1807L123.966 48H122.929L120.371 40.0283L120.16 38.4902H121.303Z" fill="white" fill-opacity="0.7"/>
<path d="M326.566 19.8438V37H324.398V22.5508L320.027 24.1445V22.1875L326.227 19.8438H326.566ZM335.098 35.1836H335.32C336.57 35.1836 337.586 35.0078 338.367 34.6562C339.148 34.3047 339.75 33.832 340.172 33.2383C340.594 32.6445 340.883 31.9766 341.039 31.2344C341.195 30.4844 341.273 29.7148 341.273 28.9258V26.3125C341.273 25.5391 341.184 24.8516 341.004 24.25C340.832 23.6484 340.59 23.1445 340.277 22.7383C339.973 22.332 339.625 22.0234 339.234 21.8125C338.844 21.6016 338.43 21.4961 337.992 21.4961C337.492 21.4961 337.043 21.5977 336.645 21.8008C336.254 21.9961 335.922 22.2734 335.648 22.6328C335.383 22.9922 335.18 23.4141 335.039 23.8984C334.898 24.3828 334.828 24.9102 334.828 25.4805C334.828 25.9883 334.891 26.4805 335.016 26.957C335.141 27.4336 335.332 27.8633 335.59 28.2461C335.848 28.6289 336.168 28.9336 336.551 29.1602C336.941 29.3789 337.398 29.4883 337.922 29.4883C338.406 29.4883 338.859 29.3945 339.281 29.207C339.711 29.0117 340.09 28.75 340.418 28.4219C340.754 28.0859 341.02 27.707 341.215 27.2852C341.418 26.8633 341.535 26.4219 341.566 25.9609H342.598C342.598 26.6094 342.469 27.25 342.211 27.8828C341.961 28.5078 341.609 29.0781 341.156 29.5938C340.703 30.1094 340.172 30.5234 339.562 30.8359C338.953 31.1406 338.289 31.293 337.57 31.293C336.727 31.293 335.996 31.1289 335.379 30.8008C334.762 30.4727 334.254 30.0352 333.855 29.4883C333.465 28.9414 333.172 28.332 332.977 27.6602C332.789 26.9805 332.695 26.293 332.695 25.5977C332.695 24.7852 332.809 24.0234 333.035 23.3125C333.262 22.6016 333.598 21.9766 334.043 21.4375C334.488 20.8906 335.039 20.4648 335.695 20.1602C336.359 19.8555 337.125 19.7031 337.992 19.7031C338.969 19.7031 339.801 19.8984 340.488 20.2891C341.176 20.6797 341.734 21.2031 342.164 21.8594C342.602 22.5156 342.922 23.2539 343.125 24.0742C343.328 24.8945 343.43 25.7383 343.43 26.6055V27.3906C343.43 28.2734 343.371 29.1719 343.254 30.0859C343.145 30.9922 342.93 31.8594 342.609 32.6875C342.297 33.5156 341.84 34.2578 341.238 34.9141C340.637 35.5625 339.852 36.0781 338.883 36.4609C337.922 36.8359 336.734 37.0234 335.32 37.0234H335.098V35.1836ZM346.559 22.7383C346.559 22.1836 346.695 21.6758 346.969 21.2148C347.242 20.7539 347.605 20.3867 348.059 20.1133C348.512 19.832 349.008 19.6914 349.547 19.6914C350.086 19.6914 350.578 19.832 351.023 20.1133C351.469 20.3867 351.824 20.7539 352.09 21.2148C352.355 21.6758 352.488 22.1836 352.488 22.7383C352.488 23.293 352.355 23.8008 352.09 24.2617C351.824 24.7148 351.469 25.0781 351.023 25.3516C350.578 25.6172 350.086 25.75 349.547 25.75C349.008 25.75 348.512 25.6172 348.059 25.3516C347.605 25.0781 347.242 24.7148 346.969 24.2617C346.695 23.8008 346.559 23.293 346.559 22.7383ZM348.012 22.7383C348.012 23.168 348.16 23.5273 348.457 23.8164C348.762 24.1055 349.125 24.25 349.547 24.25C349.969 24.25 350.32 24.1055 350.602 23.8164C350.891 23.5273 351.035 23.168 351.035 22.7383C351.035 22.3008 350.891 21.9336 350.602 21.6367C350.32 21.3398 349.969 21.1914 349.547 21.1914C349.125 21.1914 348.762 21.3398 348.457 21.6367C348.16 21.9336 348.012 22.3008 348.012 22.7383Z" fill="white" fill-opacity="0.7"/>
<path fill-rule="evenodd" clip-rule="evenodd" d="M20.9916 27.0018L13.3214 31.488L7.24148 28.6971L5.99341 31.4426L10.1426 33.3473L7.86032 34.6821L9.34575 37.2886L11.6277 35.9539L11.1813 40.5457L14.1524 40.8235L14.8065 34.0947L22.4803 29.6063V38.6292L17.0504 42.5702L18.8126 44.9981L22.4803 42.3361V45H25.4803V42.336L29.1482 44.9981L30.9103 42.5702L25.4803 38.6291V29.6272L33.1712 34.1255L33.8254 40.855L36.7964 40.5772L36.35 35.9847L38.6324 37.3197L40.1179 34.7133L37.8358 33.3785L41.9843 31.4742L40.7363 28.7287L34.657 31.5193L26.9333 27.0018L34.6332 22.4983L40.7526 25.3073L42.0007 22.5618L37.812 20.639L40.1209 19.2886L38.6354 16.6821L36.3707 18.0068L36.8128 13.4587L33.8417 13.1809L33.1919 19.866L25.4803 24.3764V15.4013L30.9452 11.4349L29.183 9.00699L25.4803 11.6944V9H22.4803V11.6437L18.8474 9.00699L17.0853 11.4349L22.4803 15.3506V24.3973L14.83 19.9227L14.1717 13.1497L11.2006 13.4275L11.6512 18.0635L9.34275 16.7133L7.85731 19.3197L10.122 20.6443L6.01269 22.5306L7.26076 25.2761L13.3008 22.5035L20.9916 27.0018Z" fill="white"/>
</svg>
